<svg xmlns="http://www.w3.org/2000/svg" width="16.058" height="19.389" viewBox="0 0 16.058 19.389">
    <path data-name="Path 145" d="M15.827 3.352a8.033 8.033 0 0 0-11.36 11.36l5.68 5.68 5.68-5.68a8.04 8.04 0 0 0 0-11.36zm-.965 10.395-4.715 4.715-4.715-4.715a6.668 6.668 0 1 1 9.43 0z" transform="translate(-2.119 -1.003)" style="fill:#ee7024"/>
    <path data-name="Path 146" d="M9.1 4a4.1 4.1 0 1 0 4.1 4.1A4.1 4.1 0 0 0 9.1 4zm0 6.825a2.73 2.73 0 1 1 2.73-2.73 2.733 2.733 0 0 1-2.73 2.73z" transform="translate(-1.067 .091)" style="fill:#ee7024"/>
</svg>
