<svg xmlns="http://www.w3.org/2000/svg" width="14" height="14" viewBox="0 0 14 14">
    <path data-name="Path 149" d="M13.207 8.665C12.846 8.039 10.861 4.9 7.487 5c-3.12.079-4.925 2.821-5.416 3.667a.564.564 0 0 0 0 .564c.355.615 2.256 3.667 5.579 3.667h.141c3.12-.079 4.93-2.821 5.416-3.667a.564.564 0 0 0 0-.566zm-5.444 3.1c-2.431.056-4.017-2.025-4.513-2.821a5.576 5.576 0 0 1 4.294-2.818c2.42-.062 4.011 2.025 4.513 2.821-.581.908-2.036 2.764-4.293 2.821z" transform="translate(-.87 -1.717)" style="fill:#212529"/>
    <path data-name="Path 150" d="M10.474 8.5a1.974 1.974 0 1 0 1.974 1.974A1.974 1.974 0 0 0 10.474 8.5zm0 2.821a.846.846 0 1 1 .846-.846.846.846 0 0 1-.846.846z" transform="translate(-3.705 -3.244)" style="fill:#212529"/>
</svg>
