<svg xmlns="http://www.w3.org/2000/svg" width="9.6" height="12" viewBox="0 0 9.6 12">
    <path d="M7 6.8h.6a.6.6 0 1 0 0-1.2H7a.6.6 0 0 0 0 1.2zM7 8a.6.6 0 0 0 0 1.2h3.6a.6.6 0 0 0 0-1.2zm6.6-1.836A.786.786 0 0 0 13.564 6v-.052a.642.642 0 0 0-.114-.168l-3.6-3.6a.642.642 0 0 0-.168-.114.192.192 0 0 0-.054 0A.528.528 0 0 0 9.43 2H5.8A1.8 1.8 0 0 0 4 3.8v8.4A1.8 1.8 0 0 0 5.8 14h6a1.8 1.8 0 0 0 1.8-1.8V6.164zM10 4.046 11.554 5.6H10.6A.6.6 0 0 1 10 5zm2.4 8.154a.6.6 0 0 1-.6.6h-6a.6.6 0 0 1-.6-.6V3.8a.6.6 0 0 1 .6-.6h3V5a1.8 1.8 0 0 0 1.8 1.8h1.8zm-1.8-1.8H7a.6.6 0 1 0 0 1.2h3.6a.6.6 0 1 0 0-1.2z" transform="translate(-4 -2)" style="fill:#ee7024"/>
</svg>
